HIERARCHY
ROOT RootJoint
{
    OFFSET   0.000000   0.000000   0.000000
    CHANNELS 6 Xposition Yposition Zposition Xrotation Yrotation Zrotation
    JOINT pelvis_lowerback
    {
        OFFSET   0.000000   0.093605   0.000000
        CHANNELS 3 Xrotation Yrotation Zrotation
        JOINT lowerback_torso
        {
            OFFSET   0.000000   0.100000   0.000000
            CHANNELS 3 Xrotation Yrotation Zrotation
            JOINT torso_head
            {
                OFFSET   0.000000   0.282350   0.000000
                CHANNELS 3 Xrotation Yrotation Zrotation
                End Site
                {
                    OFFSET   0.000000   0.192650   0.000000
                }
            }
            JOINT rTorso_Clavicle
            {
                OFFSET  -0.001000   0.157500   0.000000
                CHANNELS 3 Xrotation Yrotation Zrotation
                JOINT rShoulder
                {
                    OFFSET  -0.117647   0.000000   0.000000
                    CHANNELS 3 Xrotation Yrotation Zrotation
                    JOINT rElbow
                    {
                        OFFSET  -0.245000   0.000000   0.000000
                        CHANNELS 3 Xrotation Yrotation Zrotation
                        JOINT rWrist
                        {
                            OFFSET  -0.240000   0.000000   0.000000
                            CHANNELS 3 Xrotation Yrotation Zrotation
                            End Site
                            {
                                OFFSET  -0.116353  -0.002500   0.000000
                            }
                        }
                    }
                }
            }
            JOINT lTorso_Clavicle
            {
                OFFSET   0.001000   0.157500   0.000000
                CHANNELS 3 Xrotation Yrotation Zrotation
                JOINT lShoulder
                {
                    OFFSET   0.117647   0.000000   0.000000
                    CHANNELS 3 Xrotation Yrotation Zrotation
                    JOINT lElbow
                    {
                        OFFSET   0.245000   0.000000   0.000000
                        CHANNELS 3 Xrotation Yrotation Zrotation
                        JOINT lWrist
                        {
                            OFFSET   0.240000   0.000000   0.000000
                            CHANNELS 3 Xrotation Yrotation Zrotation
                            End Site
                            {
                                OFFSET   0.116353  -0.002500   0.000000
                            }
                        }
                    }
                }
            }
        }
    }
    JOINT rHip
    {
        OFFSET  -0.100000  -0.051395   0.000000
        CHANNELS 3 Xrotation Yrotation Zrotation
        JOINT rKnee
        {
            OFFSET   0.000000  -0.410000   0.000000
            CHANNELS 3 Xrotation Yrotation Zrotation
            JOINT rAnkle
            {
                OFFSET   0.000000  -0.390000   0.000000
                CHANNELS 3 Xrotation Yrotation Zrotation
                JOINT rToeJoint
                {
                    OFFSET   0.000000  -0.050000   0.130000
                    CHANNELS 3 Xrotation Yrotation Zrotation
                    End Site
                    {
                        OFFSET  -0.010000   0.002000   0.060000
                    }
                }
            }
        }
    }
    JOINT lHip
    {
        OFFSET   0.100000  -0.051395   0.000000
        CHANNELS 3 Xrotation Yrotation Zrotation
        JOINT lKnee
        {
            OFFSET   0.000000  -0.410000   0.000000
            CHANNELS 3 Xrotation Yrotation Zrotation
            JOINT lAnkle
            {
                OFFSET   0.000000  -0.390000   0.000000
                CHANNELS 3 Xrotation Yrotation Zrotation
                JOINT lToeJoint
                {
                    OFFSET   0.000000  -0.050000   0.130000
                    CHANNELS 3 Xrotation Yrotation Zrotation
                    End Site
                    {
                        OFFSET   0.010000   0.002000   0.060000
                    }
                }
            }
        }
    }
}
MOTION
Frames: 12
Frame Time:   0.008333
 -2.755495   0.925111   3.739245  19.411499  -4.110375  11.894628  -2.857150  -1.132717  -1.898626   0.483035  -1.235087   1.286747  -3.928992  -3.926494  -1.810495   2.957912 -16.693319  -3.397191  13.794605  -5.473624  53.956103  -0.000955  -0.089515  -0.001237   1.995656  -0.018149   8.729073   4.803469  15.639041   4.735222  17.419977  -1.362338 -54.234591   0.017361   0.995435   0.002722   2.350188  -2.648696 -14.301834 -15.524316  -0.395311  -2.063142   2.267296   0.000530   0.000831  -7.052389  -8.948047  -7.799649  -0.952675  -0.000211  -0.000008 -12.188468  13.709431   5.593433  44.132548  -0.020660   0.017356  13.303419   7.649097 -14.758201  -1.851091  -0.007511   0.012232
 -2.757273   0.925331   3.739721  19.543005  -3.989433  12.137042  -2.925473  -1.252102  -2.150415   0.498326  -1.403904   1.210081  -3.816691  -3.892126  -1.914729   2.864101 -17.016033  -3.678522  13.493483  -6.252091  53.088348  -0.000929  -0.071614  -0.000788   2.013267  -0.251376   9.346017   4.586781  15.666605   5.015955  17.242560  -1.085198 -52.511600   0.020419   1.381417   0.003157   2.455401  -2.509188 -14.886016 -15.546490  -0.485233  -2.209191   2.070328   0.000600   0.000762  -6.963998  -8.885836  -7.898109  -1.017062  -0.000173  -0.000007 -12.722186  13.605945   6.409832  44.554758  -0.018998   0.016476  12.967788   8.225763 -14.367760  -1.649424  -0.007556   0.011943
 -2.759242   0.925529   3.740028  19.637462  -3.835160  12.354733  -2.985616  -1.385246  -2.435450   0.519965  -1.598609   1.119301  -3.716692  -3.856206  -2.016228   2.765917 -17.273203  -4.078145  13.181363  -6.965277  52.145310  -0.000907  -0.057293  -0.000473   2.012533  -0.455595   9.807180   4.357685  15.599259   5.470422  17.043026  -0.850302 -50.696274   0.022913   1.731364   0.003254   2.548479  -2.384182 -15.157878 -15.550827  -0.553429  -2.339483   1.892986   0.000644   0.000597  -6.872611  -8.811775  -7.989426  -1.081174  -0.000133  -0.000049 -13.270705  13.477331   7.262050  44.890852  -0.017129   0.015338  12.646750   8.767196 -13.996761  -1.481039  -0.007246   0.011322
 -2.761281   0.925749   3.740194  19.698162  -3.687698  12.565780  -3.027248  -1.526301  -2.740303   0.559631  -1.801535   1.011814  -3.630382  -3.821788  -2.117624   2.665058 -17.470673  -4.552583  12.861266  -7.612922  51.173979  -0.000871  -0.045834  -0.000257   2.003609  -0.611614  10.088372   4.130991  15.472688   6.020870  16.834324  -0.650908 -48.886466   0.024510   2.049517   0.003099   2.627693  -2.296480 -15.179883 -15.541591  -0.606481  -2.463208   1.740809   0.000658   0.000445  -6.769300  -8.735173  -8.070106  -1.166042  -0.000089  -0.000111 -13.813944  13.336744   8.104603  45.175964  -0.015307   0.014066  12.341922   9.271277 -13.646325  -1.331616  -0.006799   0.010550
 -2.763318   0.925997   3.740252  19.738719  -3.594890  12.788170  -3.050259  -1.657092  -3.060753   0.616644  -1.993916   0.886070  -3.553822  -3.789134  -2.217656   2.563759 -17.620779  -5.069343  12.537281  -8.200553  50.200904  -0.000819  -0.036667  -0.000113   1.987540  -0.723062  10.233458   3.915638  15.315813   6.613373  16.626366  -0.478772 -47.126688   0.025260   2.341642   0.002788   2.696666  -2.234905 -15.049449 -15.529451  -0.678082  -2.571876   1.612664   0.000666   0.000408  -6.657918  -8.687015  -8.176997  -1.286157  -0.000069  -0.000089 -14.333453  13.196835   8.906013  45.426148  -0.013655   0.012699  12.053492   9.740251 -13.315954  -1.197384  -0.006317   0.009672
 -2.765316   0.926279   3.740232  19.760612  -3.539537  13.016562  -3.057063  -1.785917  -3.382546   0.688408  -2.178543   0.747884  -3.484591  -3.758902  -2.315200   2.467021 -17.738763  -5.604526  12.216756  -8.736633  49.244226  -0.000754  -0.029332  -0.000019   1.966441  -0.803048  10.282929   3.713922  15.143095   7.214061  16.422607  -0.329883 -45.441757   0.025288   2.611114   0.002411   2.758650  -2.190121 -14.833555 -15.510423  -0.730523  -2.681826   1.502623   0.000650   0.000385  -6.532536  -8.626336  -8.278165  -1.426505  -0.000053  -0.000072 -14.832940  13.052739   9.663574  45.652156  -0.012179   0.011359  11.781035  10.176530 -13.004568  -1.076475  -0.005815   0.008758
 -2.767267   0.926590   3.740162  19.766438  -3.513998  13.247868  -3.050396  -1.913270  -3.700226   0.771864  -2.356407   0.602801  -3.421155  -3.730987  -2.408907   2.378134 -17.836146  -6.140544  11.905448  -9.228576  48.317386  -0.000681  -0.023463   0.000038   1.943038  -0.865087  10.268776   3.526553  14.964054   7.803731  16.225237  -0.200773 -43.843720   0.024744   2.860424   0.002023   2.815273  -2.157126 -14.574370 -15.484892  -0.766963  -2.792313   1.409153   0.000617   0.000366  -6.396017  -8.557761  -8.373652  -1.585459  -0.000040  -0.000057 -15.312544  12.906938  10.377552  45.857698  -0.010856   0.010092  11.523889  10.582362 -12.711354  -0.967427  -0.005308   0.007854
 -2.769392   0.926890   3.739886  19.773424  -3.393099  13.389731  -2.987850  -1.990590  -3.942951   0.640562  -2.584688   0.409858  -3.255961  -3.724151  -2.497358   2.103673 -17.982795  -6.834118  11.339250  -9.913125  46.840806  -0.000630  -0.018768   0.000096   2.021925  -1.201988  10.924109   3.178309  14.735148   8.407332  15.768053  -0.035680 -41.516523   0.030450   3.324366   0.003660   2.996028  -2.004367 -15.006477 -15.478668  -0.865516  -2.819760   1.304860   0.000620   0.000312  -6.195861  -8.547069  -8.486981  -1.833116  -0.000030  -0.000046 -15.872657  12.592748  11.126074  45.835669  -0.008553   0.007989  11.089488  11.031972 -12.230549  -0.843158  -0.005113   0.007138
 -2.771574   0.927192   3.739439  19.733710  -3.273369  13.506385  -2.918511  -2.059659  -4.199362   0.520115  -2.811285   0.207292  -3.114101  -3.715036  -2.582104   1.824354 -18.017552  -7.678702  10.737903 -10.493165  45.269006  -0.000581  -0.015012   0.000128   2.067826  -1.444248  11.346998   2.833148  14.393017   9.173424  15.299008   0.058181 -39.134541   0.034555   3.740359   0.004714   3.153744  -1.875468 -15.133224 -15.447584  -0.968521  -2.820946   1.227422   0.000595   0.000256  -5.988287  -8.548313  -8.606725  -2.103246  -0.000022  -0.000037 -16.447066  12.264647  11.859650  45.734844  -0.006311   0.005983  10.673471  11.449751 -11.775624  -0.751974  -0.004650   0.006286
 -2.773754   0.927530   3.738868  19.646811  -3.176161  13.614209  -2.833431  -2.125409  -4.467465   0.430720  -3.025492  -0.004776  -2.992815  -3.705617  -2.666004   1.551851 -17.966899  -8.600340  10.121541 -10.980820  43.675575  -0.000530  -0.012006   0.000142   2.088260  -1.570459  11.532665   2.507731  13.985689  10.019265  14.836863   0.097103 -36.789450   0.036887   4.113861   0.005277   3.286481  -1.812326 -15.004951 -15.388977  -1.065176  -2.812410   1.179915   0.000537   0.000211  -5.768837  -8.549593  -8.724748  -2.402602  -0.000015  -0.000030 -17.021555  11.941960  12.553919  45.606144  -0.004423   0.004300  10.279748  11.836638 -11.347139  -0.672879  -0.004148   0.005481
 -2.775907   0.927914   3.738223  19.519270  -3.103117  13.717504  -2.732254  -2.189017  -4.740609   0.373031  -3.225784  -0.223360  -2.886146  -3.696619  -2.748553   1.294651 -17.861459  -9.550317   9.507065 -11.392999  42.101965  -0.000477  -0.009601   0.000143   2.089418  -1.609087  11.551947   2.208370  13.546628  10.890259  14.391689   0.095021 -34.525299   0.037710   4.452389   0.005504   3.399500  -1.800492 -14.719387 -15.305239  -1.149207  -2.800880   1.161069   0.000454   0.000171  -5.535601  -8.543892  -8.837172  -2.734039  -0.000010  -0.000054 -17.591224  11.628208  13.200478  45.466682  -0.002918   0.002956   9.908125  12.194895 -10.944045  -0.603031  -0.003650   0.004743
 -2.778027   0.928340   3.737545  19.357970  -3.051144  13.816897  -2.617551  -2.251355  -5.013484   0.343683  -3.413023  -0.444705  -2.790615  -3.688209  -2.828863   1.058232 -17.725090 -10.497436   8.907404 -11.745017  40.574427  -0.000423  -0.007677   0.000137   2.078508  -1.591762  11.464082   1.937311  13.098529  11.753219  13.969427   0.063317 -32.366407   0.037366   4.761925   0.005513   3.498709  -1.822036 -14.348049 -15.199105  -1.218622  -2.788557   1.168346   0.000354   0.000136  -5.290287  -8.528875  -8.942932  -3.095916  -0.000005  -0.000130 -18.153134  11.324656  13.797770  45.322983  -0.001753   0.001909   9.557804  12.526704 -10.565161  -0.541158  -0.003176   0.004080
